<mxfile host="Electron" modified="2024-04-06T15:54:28.636Z" agent="Mozilla/5.0 (X11; Linux x86_64) AppleWebKit/537.36 (KHTML, like Gecko) draw.io/24.1.0 Chrome/120.0.6099.109 Electron/28.1.0 Safari/537.36" etag="98sLW3fZQUjvE8hd9CL2" version="24.1.0" type="device">
  <diagram name="PÃ¡gina-1" id="eLkDxXY-62TLMYeRFwhm">
    <mxGraphModel dx="810" dy="454" grid="1" gridSize="10" guides="1" tooltips="1" connect="1" arrows="1" fold="1" page="1" pageScale="1" pageWidth="1169" pageHeight="827" math="0" shadow="0">
      <root>
        <mxCell id="0" />
        <mxCell id="1" parent="0" />
        <mxCell id="9aIz3eH4mraqbj3gu_Gu-1" value="" style="rounded=0;whiteSpace=wrap;html=1;" parent="1" vertex="1">
          <mxGeometry x="80" y="80" width="100" height="360" as="geometry" />
        </mxCell>
        <mxCell id="9aIz3eH4mraqbj3gu_Gu-2" value="&lt;b&gt;node1&lt;/b&gt;" style="text;html=1;align=center;verticalAlign=middle;whiteSpace=wrap;rounded=0;" parent="1" vertex="1">
          <mxGeometry x="20" y="83" width="60" height="30" as="geometry" />
        </mxCell>
        <mxCell id="9aIz3eH4mraqbj3gu_Gu-3" value="M2" style="rounded=0;whiteSpace=wrap;html=1;fillColor=#ffe6cc;strokeColor=#d79b00;" parent="1" vertex="1">
          <mxGeometry x="90" y="150" width="30" height="30" as="geometry" />
        </mxCell>
        <mxCell id="9aIz3eH4mraqbj3gu_Gu-4" value="M0" style="rounded=0;whiteSpace=wrap;html=1;fillColor=#dae8fc;strokeColor=#6c8ebf;" parent="1" vertex="1">
          <mxGeometry x="90" y="90" width="30" height="30" as="geometry" />
        </mxCell>
        <mxCell id="9aIz3eH4mraqbj3gu_Gu-5" value="M1" style="rounded=0;whiteSpace=wrap;html=1;fillColor=#dae8fc;strokeColor=#6c8ebf;" parent="1" vertex="1">
          <mxGeometry x="90" y="120" width="30" height="30" as="geometry" />
        </mxCell>
        <mxCell id="9aIz3eH4mraqbj3gu_Gu-9" style="edgeStyle=orthogonalEdgeStyle;rounded=0;orthogonalLoop=1;jettySize=auto;html=1;exitX=1;exitY=0.5;exitDx=0;exitDy=0;entryX=1;entryY=0.5;entryDx=0;entryDy=0;fillColor=#dae8fc;strokeColor=#6c8ebf;" parent="1" source="9aIz3eH4mraqbj3gu_Gu-6" target="9aIz3eH4mraqbj3gu_Gu-4" edge="1">
          <mxGeometry relative="1" as="geometry">
            <Array as="points">
              <mxPoint x="170" y="371" />
              <mxPoint x="170" y="105" />
            </Array>
          </mxGeometry>
        </mxCell>
        <mxCell id="9aIz3eH4mraqbj3gu_Gu-6" value="Q0" style="rounded=0;whiteSpace=wrap;html=1;fillColor=#dae8fc;strokeColor=#6c8ebf;" parent="1" vertex="1">
          <mxGeometry x="124" y="356" width="30" height="30" as="geometry" />
        </mxCell>
        <mxCell id="9aIz3eH4mraqbj3gu_Gu-8" value="&lt;div&gt;&lt;font style=&quot;font-size: 11px;&quot;&gt;EntangleNode&lt;/font&gt;&lt;br&gt;&lt;/div&gt;" style="rounded=0;whiteSpace=wrap;html=1;rotation=-90;fillColor=none;labelPosition=center;verticalLabelPosition=top;align=center;verticalAlign=bottom;labelBackgroundColor=default;" parent="1" vertex="1">
          <mxGeometry x="103.25" y="364.25" width="74.5" height="39" as="geometry" />
        </mxCell>
        <mxCell id="9aIz3eH4mraqbj3gu_Gu-11" style="edgeStyle=orthogonalEdgeStyle;rounded=0;orthogonalLoop=1;jettySize=auto;html=1;exitX=1;exitY=0.5;exitDx=0;exitDy=0;entryX=0;entryY=0.5;entryDx=0;entryDy=0;fillColor=#dae8fc;strokeColor=#6c8ebf;" parent="1" source="9aIz3eH4mraqbj3gu_Gu-7" target="9aIz3eH4mraqbj3gu_Gu-10" edge="1">
          <mxGeometry relative="1" as="geometry" />
        </mxCell>
        <mxCell id="9aIz3eH4mraqbj3gu_Gu-7" value="Q1" style="rounded=0;whiteSpace=wrap;html=1;fillColor=#dae8fc;strokeColor=#6c8ebf;" parent="1" vertex="1">
          <mxGeometry x="124" y="386" width="30" height="30" as="geometry" />
        </mxCell>
        <mxCell id="9aIz3eH4mraqbj3gu_Gu-19" style="edgeStyle=orthogonalEdgeStyle;rounded=0;orthogonalLoop=1;jettySize=auto;html=1;exitX=1;exitY=0.5;exitDx=0;exitDy=0;entryX=0;entryY=0.5;entryDx=0;entryDy=0;fillColor=#dae8fc;strokeColor=#6c8ebf;" parent="1" source="9aIz3eH4mraqbj3gu_Gu-10" target="9aIz3eH4mraqbj3gu_Gu-16" edge="1">
          <mxGeometry relative="1" as="geometry" />
        </mxCell>
        <mxCell id="9aIz3eH4mraqbj3gu_Gu-10" value="" style="ellipse;whiteSpace=wrap;html=1;aspect=fixed;fillColor=#66B2FF;strokeColor=#6c8ebf;" parent="1" vertex="1">
          <mxGeometry x="175" y="396" width="10" height="10" as="geometry" />
        </mxCell>
        <mxCell id="9aIz3eH4mraqbj3gu_Gu-121" style="edgeStyle=orthogonalEdgeStyle;rounded=0;orthogonalLoop=1;jettySize=auto;html=1;exitX=1;exitY=0.5;exitDx=0;exitDy=0;fillColor=#dae8fc;strokeColor=#6c8ebf;strokeWidth=2;" parent="1" source="9aIz3eH4mraqbj3gu_Gu-12" edge="1">
          <mxGeometry relative="1" as="geometry">
            <mxPoint x="290" y="97" as="targetPoint" />
          </mxGeometry>
        </mxCell>
        <mxCell id="9aIz3eH4mraqbj3gu_Gu-12" value="" style="ellipse;whiteSpace=wrap;html=1;aspect=fixed;fillColor=#66B2FF;strokeColor=#6c8ebf;" parent="1" vertex="1">
          <mxGeometry x="175" y="92" width="10" height="10" as="geometry" />
        </mxCell>
        <mxCell id="9aIz3eH4mraqbj3gu_Gu-14" value="Quantum&lt;div&gt;Channel&lt;/div&gt;" style="rounded=0;whiteSpace=wrap;html=1;" parent="1" vertex="1">
          <mxGeometry x="210" y="381" width="60" height="40" as="geometry" />
        </mxCell>
        <mxCell id="9aIz3eH4mraqbj3gu_Gu-16" value="" style="ellipse;whiteSpace=wrap;html=1;aspect=fixed;fillColor=#66B2FF;strokeColor=#6c8ebf;" parent="1" vertex="1">
          <mxGeometry x="205" y="396" width="10" height="10" as="geometry" />
        </mxCell>
        <mxCell id="9aIz3eH4mraqbj3gu_Gu-37" style="edgeStyle=orthogonalEdgeStyle;rounded=0;orthogonalLoop=1;jettySize=auto;html=1;exitX=1;exitY=0.5;exitDx=0;exitDy=0;fillColor=#dae8fc;strokeColor=#6c8ebf;" parent="1" source="9aIz3eH4mraqbj3gu_Gu-20" edge="1">
          <mxGeometry relative="1" as="geometry">
            <mxPoint x="290" y="401" as="targetPoint" />
          </mxGeometry>
        </mxCell>
        <mxCell id="9aIz3eH4mraqbj3gu_Gu-20" value="" style="ellipse;whiteSpace=wrap;html=1;aspect=fixed;fillColor=#66B2FF;strokeColor=#6c8ebf;" parent="1" vertex="1">
          <mxGeometry x="265" y="396" width="10" height="10" as="geometry" />
        </mxCell>
        <mxCell id="9aIz3eH4mraqbj3gu_Gu-21" value="" style="rounded=0;whiteSpace=wrap;html=1;" parent="1" vertex="1">
          <mxGeometry x="296" y="80" width="100" height="360" as="geometry" />
        </mxCell>
        <mxCell id="9aIz3eH4mraqbj3gu_Gu-22" value="&lt;b&gt;sw1&lt;/b&gt;" style="text;html=1;align=center;verticalAlign=middle;whiteSpace=wrap;rounded=0;" parent="1" vertex="1">
          <mxGeometry x="326" y="50" width="60" height="30" as="geometry" />
        </mxCell>
        <mxCell id="9aIz3eH4mraqbj3gu_Gu-24" value="M0" style="rounded=0;whiteSpace=wrap;html=1;fillColor=#dae8fc;strokeColor=#6c8ebf;" parent="1" vertex="1">
          <mxGeometry x="321" y="137" width="30" height="30" as="geometry" />
        </mxCell>
        <mxCell id="9aIz3eH4mraqbj3gu_Gu-25" value="M1" style="rounded=0;whiteSpace=wrap;html=1;fillColor=#dae8fc;strokeColor=#6c8ebf;" parent="1" vertex="1">
          <mxGeometry x="321" y="167" width="30" height="30" as="geometry" />
        </mxCell>
        <mxCell id="9aIz3eH4mraqbj3gu_Gu-28" value="&lt;div&gt;&lt;font style=&quot;font-size: 11px;&quot;&gt;EntangleNode&lt;/font&gt;&lt;br&gt;&lt;/div&gt;" style="rounded=0;whiteSpace=wrap;html=1;rotation=-90;fillColor=none;labelPosition=center;verticalLabelPosition=top;align=center;verticalAlign=bottom;labelBackgroundColor=default;" parent="1" vertex="1">
          <mxGeometry x="319.25" y="366.25" width="70.5" height="39" as="geometry" />
        </mxCell>
        <mxCell id="9aIz3eH4mraqbj3gu_Gu-42" style="edgeStyle=orthogonalEdgeStyle;rounded=0;orthogonalLoop=1;jettySize=auto;html=1;exitX=1;exitY=0.5;exitDx=0;exitDy=0;entryX=1;entryY=0.5;entryDx=0;entryDy=0;fillColor=#dae8fc;strokeColor=#6c8ebf;" parent="1" source="9aIz3eH4mraqbj3gu_Gu-27" target="9aIz3eH4mraqbj3gu_Gu-24" edge="1">
          <mxGeometry relative="1" as="geometry">
            <Array as="points">
              <mxPoint x="380" y="371" />
              <mxPoint x="380" y="152" />
            </Array>
          </mxGeometry>
        </mxCell>
        <mxCell id="9aIz3eH4mraqbj3gu_Gu-27" value="Q0" style="rounded=0;whiteSpace=wrap;html=1;fillColor=#dae8fc;strokeColor=#6c8ebf;" parent="1" vertex="1">
          <mxGeometry x="340" y="356" width="30" height="30" as="geometry" />
        </mxCell>
        <mxCell id="9aIz3eH4mraqbj3gu_Gu-29" style="edgeStyle=orthogonalEdgeStyle;rounded=0;orthogonalLoop=1;jettySize=auto;html=1;exitX=1;exitY=0.5;exitDx=0;exitDy=0;entryX=0;entryY=0.5;entryDx=0;entryDy=0;fillColor=#dae8fc;strokeColor=#6c8ebf;" parent="1" source="9aIz3eH4mraqbj3gu_Gu-30" target="9aIz3eH4mraqbj3gu_Gu-32" edge="1">
          <mxGeometry relative="1" as="geometry" />
        </mxCell>
        <mxCell id="9aIz3eH4mraqbj3gu_Gu-30" value="Q1" style="rounded=0;whiteSpace=wrap;html=1;fillColor=#dae8fc;strokeColor=#6c8ebf;" parent="1" vertex="1">
          <mxGeometry x="340" y="386" width="30" height="30" as="geometry" />
        </mxCell>
        <mxCell id="9aIz3eH4mraqbj3gu_Gu-31" style="edgeStyle=orthogonalEdgeStyle;rounded=0;orthogonalLoop=1;jettySize=auto;html=1;exitX=1;exitY=0.5;exitDx=0;exitDy=0;entryX=0;entryY=0.5;entryDx=0;entryDy=0;fillColor=#dae8fc;strokeColor=#6c8ebf;" parent="1" source="9aIz3eH4mraqbj3gu_Gu-32" edge="1">
          <mxGeometry relative="1" as="geometry">
            <mxPoint x="421" y="401" as="targetPoint" />
          </mxGeometry>
        </mxCell>
        <mxCell id="9aIz3eH4mraqbj3gu_Gu-32" value="" style="ellipse;whiteSpace=wrap;html=1;aspect=fixed;fillColor=#66B2FF;strokeColor=#6c8ebf;" parent="1" vertex="1">
          <mxGeometry x="391" y="396" width="10" height="10" as="geometry" />
        </mxCell>
        <mxCell id="9aIz3eH4mraqbj3gu_Gu-106" style="edgeStyle=orthogonalEdgeStyle;rounded=0;orthogonalLoop=1;jettySize=auto;html=1;exitX=1;exitY=0.5;exitDx=0;exitDy=0;entryX=0;entryY=0.5;entryDx=0;entryDy=0;fillColor=#dae8fc;strokeColor=#6c8ebf;strokeWidth=2;" parent="1" source="9aIz3eH4mraqbj3gu_Gu-33" target="9aIz3eH4mraqbj3gu_Gu-62" edge="1">
          <mxGeometry relative="1" as="geometry" />
        </mxCell>
        <mxCell id="9aIz3eH4mraqbj3gu_Gu-33" value="" style="ellipse;whiteSpace=wrap;html=1;aspect=fixed;fillColor=#66B2FF;strokeColor=#6c8ebf;" parent="1" vertex="1">
          <mxGeometry x="391" y="92" width="10" height="10" as="geometry" />
        </mxCell>
        <mxCell id="9aIz3eH4mraqbj3gu_Gu-41" style="edgeStyle=orthogonalEdgeStyle;rounded=0;orthogonalLoop=1;jettySize=auto;html=1;exitX=1;exitY=0.5;exitDx=0;exitDy=0;entryX=0;entryY=0.5;entryDx=0;entryDy=0;fillColor=#dae8fc;strokeColor=#6c8ebf;" parent="1" source="9aIz3eH4mraqbj3gu_Gu-35" target="9aIz3eH4mraqbj3gu_Gu-25" edge="1">
          <mxGeometry relative="1" as="geometry">
            <Array as="points">
              <mxPoint x="310" y="401" />
              <mxPoint x="310" y="182" />
            </Array>
          </mxGeometry>
        </mxCell>
        <mxCell id="9aIz3eH4mraqbj3gu_Gu-35" value="" style="ellipse;whiteSpace=wrap;html=1;aspect=fixed;fillColor=#66B2FF;strokeColor=#6c8ebf;" parent="1" vertex="1">
          <mxGeometry x="291" y="396" width="10" height="10" as="geometry" />
        </mxCell>
        <mxCell id="9aIz3eH4mraqbj3gu_Gu-13" value="" style="ellipse;whiteSpace=wrap;html=1;aspect=fixed;fillColor=#66B2FF;strokeColor=#6c8ebf;" parent="1" vertex="1">
          <mxGeometry x="291" y="92" width="10" height="10" as="geometry" />
        </mxCell>
        <mxCell id="9aIz3eH4mraqbj3gu_Gu-43" value="Quantum&lt;div&gt;Channel&lt;/div&gt;" style="rounded=0;whiteSpace=wrap;html=1;" parent="1" vertex="1">
          <mxGeometry x="427" y="381" width="60" height="40" as="geometry" />
        </mxCell>
        <mxCell id="9aIz3eH4mraqbj3gu_Gu-44" value="" style="ellipse;whiteSpace=wrap;html=1;aspect=fixed;fillColor=#66B2FF;strokeColor=#6c8ebf;" parent="1" vertex="1">
          <mxGeometry x="422" y="396" width="10" height="10" as="geometry" />
        </mxCell>
        <mxCell id="9aIz3eH4mraqbj3gu_Gu-45" style="edgeStyle=orthogonalEdgeStyle;rounded=0;orthogonalLoop=1;jettySize=auto;html=1;exitX=1;exitY=0.5;exitDx=0;exitDy=0;fillColor=#dae8fc;strokeColor=#6c8ebf;" parent="1" source="9aIz3eH4mraqbj3gu_Gu-46" edge="1">
          <mxGeometry relative="1" as="geometry">
            <mxPoint x="507" y="401" as="targetPoint" />
          </mxGeometry>
        </mxCell>
        <mxCell id="9aIz3eH4mraqbj3gu_Gu-46" value="" style="ellipse;whiteSpace=wrap;html=1;aspect=fixed;fillColor=#66B2FF;strokeColor=#6c8ebf;" parent="1" vertex="1">
          <mxGeometry x="482" y="396" width="10" height="10" as="geometry" />
        </mxCell>
        <mxCell id="9aIz3eH4mraqbj3gu_Gu-47" value="" style="rounded=0;whiteSpace=wrap;html=1;" parent="1" vertex="1">
          <mxGeometry x="513" y="80" width="100" height="360" as="geometry" />
        </mxCell>
        <mxCell id="9aIz3eH4mraqbj3gu_Gu-48" value="&lt;b&gt;sw2&lt;/b&gt;" style="text;html=1;align=center;verticalAlign=middle;whiteSpace=wrap;rounded=0;" parent="1" vertex="1">
          <mxGeometry x="543" y="50" width="60" height="30" as="geometry" />
        </mxCell>
        <mxCell id="9aIz3eH4mraqbj3gu_Gu-49" value="M0" style="rounded=0;whiteSpace=wrap;html=1;fillColor=#dae8fc;strokeColor=#6c8ebf;" parent="1" vertex="1">
          <mxGeometry x="538" y="140" width="30" height="30" as="geometry" />
        </mxCell>
        <mxCell id="9aIz3eH4mraqbj3gu_Gu-50" value="M1" style="rounded=0;whiteSpace=wrap;html=1;fillColor=#dae8fc;strokeColor=#6c8ebf;" parent="1" vertex="1">
          <mxGeometry x="538" y="170" width="30" height="30" as="geometry" />
        </mxCell>
        <mxCell id="9aIz3eH4mraqbj3gu_Gu-51" value="&lt;div&gt;&lt;font style=&quot;font-size: 11px;&quot;&gt;EntangleNode&lt;/font&gt;&lt;br&gt;&lt;/div&gt;" style="rounded=0;whiteSpace=wrap;html=1;rotation=-90;fillColor=none;labelPosition=center;verticalLabelPosition=top;align=center;verticalAlign=bottom;labelBackgroundColor=default;" parent="1" vertex="1">
          <mxGeometry x="536.25" y="366.25" width="70.5" height="39" as="geometry" />
        </mxCell>
        <mxCell id="9aIz3eH4mraqbj3gu_Gu-52" style="edgeStyle=orthogonalEdgeStyle;rounded=0;orthogonalLoop=1;jettySize=auto;html=1;exitX=1;exitY=0.5;exitDx=0;exitDy=0;entryX=1;entryY=0.5;entryDx=0;entryDy=0;fillColor=#dae8fc;strokeColor=#6c8ebf;" parent="1" source="9aIz3eH4mraqbj3gu_Gu-53" target="9aIz3eH4mraqbj3gu_Gu-49" edge="1">
          <mxGeometry relative="1" as="geometry">
            <Array as="points">
              <mxPoint x="597" y="371" />
              <mxPoint x="597" y="155" />
            </Array>
          </mxGeometry>
        </mxCell>
        <mxCell id="9aIz3eH4mraqbj3gu_Gu-53" value="Q0" style="rounded=0;whiteSpace=wrap;html=1;fillColor=#dae8fc;strokeColor=#6c8ebf;" parent="1" vertex="1">
          <mxGeometry x="557" y="356" width="30" height="30" as="geometry" />
        </mxCell>
        <mxCell id="9aIz3eH4mraqbj3gu_Gu-54" style="edgeStyle=orthogonalEdgeStyle;rounded=0;orthogonalLoop=1;jettySize=auto;html=1;exitX=1;exitY=0.5;exitDx=0;exitDy=0;entryX=0;entryY=0.5;entryDx=0;entryDy=0;fillColor=#dae8fc;strokeColor=#6c8ebf;" parent="1" source="9aIz3eH4mraqbj3gu_Gu-55" target="9aIz3eH4mraqbj3gu_Gu-57" edge="1">
          <mxGeometry relative="1" as="geometry" />
        </mxCell>
        <mxCell id="9aIz3eH4mraqbj3gu_Gu-55" value="Q1" style="rounded=0;whiteSpace=wrap;html=1;fillColor=#dae8fc;strokeColor=#6c8ebf;" parent="1" vertex="1">
          <mxGeometry x="557" y="386" width="30" height="30" as="geometry" />
        </mxCell>
        <mxCell id="9aIz3eH4mraqbj3gu_Gu-57" value="" style="ellipse;whiteSpace=wrap;html=1;aspect=fixed;fillColor=#66B2FF;strokeColor=#6c8ebf;" parent="1" vertex="1">
          <mxGeometry x="608" y="396" width="10" height="10" as="geometry" />
        </mxCell>
        <mxCell id="9aIz3eH4mraqbj3gu_Gu-58" value="" style="ellipse;whiteSpace=wrap;html=1;aspect=fixed;fillColor=#66B2FF;strokeColor=#6c8ebf;" parent="1" vertex="1">
          <mxGeometry x="608" y="92" width="10" height="10" as="geometry" />
        </mxCell>
        <mxCell id="9aIz3eH4mraqbj3gu_Gu-60" style="edgeStyle=orthogonalEdgeStyle;rounded=0;orthogonalLoop=1;jettySize=auto;html=1;exitX=1;exitY=0.5;exitDx=0;exitDy=0;entryX=0;entryY=0.5;entryDx=0;entryDy=0;fillColor=#dae8fc;strokeColor=#6c8ebf;" parent="1" source="9aIz3eH4mraqbj3gu_Gu-61" target="9aIz3eH4mraqbj3gu_Gu-50" edge="1">
          <mxGeometry relative="1" as="geometry">
            <Array as="points">
              <mxPoint x="527" y="401" />
              <mxPoint x="527" y="185" />
            </Array>
          </mxGeometry>
        </mxCell>
        <mxCell id="9aIz3eH4mraqbj3gu_Gu-61" value="" style="ellipse;whiteSpace=wrap;html=1;aspect=fixed;fillColor=#66B2FF;strokeColor=#6c8ebf;" parent="1" vertex="1">
          <mxGeometry x="508" y="396" width="10" height="10" as="geometry" />
        </mxCell>
        <mxCell id="9aIz3eH4mraqbj3gu_Gu-62" value="" style="ellipse;whiteSpace=wrap;html=1;aspect=fixed;fillColor=#66B2FF;strokeColor=#6c8ebf;" parent="1" vertex="1">
          <mxGeometry x="508" y="92" width="10" height="10" as="geometry" />
        </mxCell>
        <mxCell id="9aIz3eH4mraqbj3gu_Gu-63" value="&lt;b&gt;&lt;font style=&quot;font-size: 18px;&quot;&gt;...&lt;/font&gt;&lt;/b&gt;" style="rounded=0;whiteSpace=wrap;html=1;strokeColor=none;" parent="1" vertex="1">
          <mxGeometry x="641" y="100" width="60" height="321" as="geometry" />
        </mxCell>
        <mxCell id="9aIz3eH4mraqbj3gu_Gu-108" style="edgeStyle=orthogonalEdgeStyle;rounded=0;orthogonalLoop=1;jettySize=auto;html=1;exitX=1;exitY=0.5;exitDx=0;exitDy=0;fillColor=#dae8fc;strokeColor=#6c8ebf;strokeWidth=2;" parent="1" target="9aIz3eH4mraqbj3gu_Gu-107" edge="1">
          <mxGeometry relative="1" as="geometry">
            <mxPoint x="832" y="97" as="sourcePoint" />
          </mxGeometry>
        </mxCell>
        <mxCell id="9aIz3eH4mraqbj3gu_Gu-82" value="" style="rounded=0;whiteSpace=wrap;html=1;" parent="1" vertex="1">
          <mxGeometry x="944" y="80" width="100" height="360" as="geometry" />
        </mxCell>
        <mxCell id="9aIz3eH4mraqbj3gu_Gu-83" value="&lt;b&gt;node2&lt;/b&gt;" style="text;html=1;align=center;verticalAlign=middle;whiteSpace=wrap;rounded=0;" parent="1" vertex="1">
          <mxGeometry x="1044" y="90" width="60" height="30" as="geometry" />
        </mxCell>
        <mxCell id="9aIz3eH4mraqbj3gu_Gu-85" value="M0" style="rounded=0;whiteSpace=wrap;html=1;fillColor=#dae8fc;strokeColor=#6c8ebf;" parent="1" vertex="1">
          <mxGeometry x="1006" y="204" width="30" height="30" as="geometry" />
        </mxCell>
        <mxCell id="9aIz3eH4mraqbj3gu_Gu-86" value="M1" style="rounded=0;whiteSpace=wrap;html=1;fillColor=#dae8fc;strokeColor=#6c8ebf;" parent="1" vertex="1">
          <mxGeometry x="1006" y="234" width="30" height="30" as="geometry" />
        </mxCell>
        <mxCell id="9aIz3eH4mraqbj3gu_Gu-94" value="Quantum&lt;div&gt;Channel&lt;/div&gt;" style="rounded=0;whiteSpace=wrap;html=1;" parent="1" vertex="1">
          <mxGeometry x="855" y="381" width="60" height="40" as="geometry" />
        </mxCell>
        <mxCell id="9aIz3eH4mraqbj3gu_Gu-95" value="" style="ellipse;whiteSpace=wrap;html=1;aspect=fixed;fillColor=#66B2FF;strokeColor=#6c8ebf;" parent="1" vertex="1">
          <mxGeometry x="850" y="396" width="10" height="10" as="geometry" />
        </mxCell>
        <mxCell id="9aIz3eH4mraqbj3gu_Gu-98" style="edgeStyle=orthogonalEdgeStyle;rounded=0;orthogonalLoop=1;jettySize=auto;html=1;exitX=1;exitY=0.5;exitDx=0;exitDy=0;entryX=0;entryY=0.5;entryDx=0;entryDy=0;fillColor=#dae8fc;strokeColor=#6c8ebf;" parent="1" source="9aIz3eH4mraqbj3gu_Gu-96" target="9aIz3eH4mraqbj3gu_Gu-97" edge="1">
          <mxGeometry relative="1" as="geometry" />
        </mxCell>
        <mxCell id="9aIz3eH4mraqbj3gu_Gu-96" value="" style="ellipse;whiteSpace=wrap;html=1;aspect=fixed;fillColor=#66B2FF;strokeColor=#6c8ebf;" parent="1" vertex="1">
          <mxGeometry x="910" y="396" width="10" height="10" as="geometry" />
        </mxCell>
        <mxCell id="9aIz3eH4mraqbj3gu_Gu-103" style="edgeStyle=orthogonalEdgeStyle;rounded=0;orthogonalLoop=1;jettySize=auto;html=1;exitX=1;exitY=0.5;exitDx=0;exitDy=0;entryX=0;entryY=0.5;entryDx=0;entryDy=0;fillColor=#dae8fc;strokeColor=#6c8ebf;" parent="1" source="9aIz3eH4mraqbj3gu_Gu-97" target="9aIz3eH4mraqbj3gu_Gu-85" edge="1">
          <mxGeometry relative="1" as="geometry" />
        </mxCell>
        <mxCell id="9aIz3eH4mraqbj3gu_Gu-97" value="" style="ellipse;whiteSpace=wrap;html=1;aspect=fixed;fillColor=#66B2FF;strokeColor=#6c8ebf;" parent="1" vertex="1">
          <mxGeometry x="939" y="396" width="10" height="10" as="geometry" />
        </mxCell>
        <mxCell id="9aIz3eH4mraqbj3gu_Gu-100" style="edgeStyle=orthogonalEdgeStyle;rounded=0;orthogonalLoop=1;jettySize=auto;html=1;exitX=1;exitY=0.5;exitDx=0;exitDy=0;entryX=0;entryY=0.5;entryDx=0;entryDy=0;fillColor=#dae8fc;strokeColor=#6c8ebf;" parent="1" edge="1">
          <mxGeometry relative="1" as="geometry">
            <mxPoint x="619" y="400" as="sourcePoint" />
            <mxPoint x="638" y="400" as="targetPoint" />
          </mxGeometry>
        </mxCell>
        <mxCell id="9aIz3eH4mraqbj3gu_Gu-101" style="edgeStyle=orthogonalEdgeStyle;rounded=0;orthogonalLoop=1;jettySize=auto;html=1;exitX=1;exitY=0.5;exitDx=0;exitDy=0;entryX=0;entryY=0.5;entryDx=0;entryDy=0;fillColor=#dae8fc;strokeColor=#6c8ebf;strokeWidth=2;" parent="1" edge="1">
          <mxGeometry relative="1" as="geometry">
            <mxPoint x="619" y="97" as="sourcePoint" />
            <mxPoint x="638" y="97" as="targetPoint" />
          </mxGeometry>
        </mxCell>
        <mxCell id="9aIz3eH4mraqbj3gu_Gu-107" value="" style="ellipse;whiteSpace=wrap;html=1;aspect=fixed;fillColor=#66B2FF;strokeColor=#6c8ebf;" parent="1" vertex="1">
          <mxGeometry x="939" y="92" width="10" height="10" as="geometry" />
        </mxCell>
        <mxCell id="9aIz3eH4mraqbj3gu_Gu-109" value="classical" style="text;html=1;align=center;verticalAlign=middle;whiteSpace=wrap;rounded=0;" parent="1" vertex="1">
          <mxGeometry x="205" y="72" width="60" height="30" as="geometry" />
        </mxCell>
        <mxCell id="9aIz3eH4mraqbj3gu_Gu-110" value="classical" style="text;html=1;align=center;verticalAlign=middle;whiteSpace=wrap;rounded=0;" parent="1" vertex="1">
          <mxGeometry x="422" y="70" width="60" height="30" as="geometry" />
        </mxCell>
        <mxCell id="9aIz3eH4mraqbj3gu_Gu-111" value="classical" style="text;html=1;align=center;verticalAlign=middle;whiteSpace=wrap;rounded=0;" parent="1" vertex="1">
          <mxGeometry x="855" y="70" width="60" height="30" as="geometry" />
        </mxCell>
        <mxCell id="9aIz3eH4mraqbj3gu_Gu-115" value="ccon_L_sw1_path1_1&lt;div&gt;ccon_L_sw1_path1_2&lt;br&gt;&lt;/div&gt;" style="text;html=1;align=center;verticalAlign=middle;whiteSpace=wrap;rounded=0;fontSize=11;rotation=-90;" parent="1" vertex="1">
          <mxGeometry x="205" y="190" width="121" height="30" as="geometry" />
        </mxCell>
        <mxCell id="9aIz3eH4mraqbj3gu_Gu-112" value="ccon_R_node1_path1_1&lt;div&gt;ccon_R_node1_path1_2&lt;br&gt;&lt;/div&gt;" style="text;html=1;align=center;verticalAlign=middle;whiteSpace=wrap;rounded=0;fontSize=11;rotation=-90;" parent="1" vertex="1">
          <mxGeometry x="147.25" y="197" width="127.75" height="30" as="geometry" />
        </mxCell>
        <mxCell id="9aIz3eH4mraqbj3gu_Gu-123" value="" style="endArrow=classic;html=1;rounded=0;" parent="1" edge="1">
          <mxGeometry width="50" height="50" relative="1" as="geometry">
            <mxPoint x="200" y="140" as="sourcePoint" />
            <mxPoint x="190" y="130" as="targetPoint" />
          </mxGeometry>
        </mxCell>
        <mxCell id="9aIz3eH4mraqbj3gu_Gu-124" value="" style="endArrow=classic;html=1;rounded=0;" parent="1" edge="1">
          <mxGeometry width="50" height="50" relative="1" as="geometry">
            <mxPoint x="280" y="150" as="sourcePoint" />
            <mxPoint x="290" y="130" as="targetPoint" />
          </mxGeometry>
        </mxCell>
        <mxCell id="9aIz3eH4mraqbj3gu_Gu-128" style="edgeStyle=orthogonalEdgeStyle;rounded=0;orthogonalLoop=1;jettySize=auto;html=1;exitX=1;exitY=0.5;exitDx=0;exitDy=0;entryX=1;entryY=0.5;entryDx=0;entryDy=0;fillColor=#dae8fc;strokeColor=#6c8ebf;" parent="1" source="9aIz3eH4mraqbj3gu_Gu-125" target="9aIz3eH4mraqbj3gu_Gu-5" edge="1">
          <mxGeometry relative="1" as="geometry">
            <Array as="points">
              <mxPoint x="160" y="291" />
              <mxPoint x="160" y="135" />
            </Array>
          </mxGeometry>
        </mxCell>
        <mxCell id="9aIz3eH4mraqbj3gu_Gu-125" value="Q0" style="rounded=0;whiteSpace=wrap;html=1;fillColor=#dae8fc;strokeColor=#6c8ebf;" parent="1" vertex="1">
          <mxGeometry x="107" y="276" width="30" height="30" as="geometry" />
        </mxCell>
        <mxCell id="9aIz3eH4mraqbj3gu_Gu-126" value="&lt;div&gt;&lt;font style=&quot;font-size: 11px;&quot;&gt;EntangleNode&lt;/font&gt;&lt;br&gt;&lt;/div&gt;" style="rounded=0;whiteSpace=wrap;html=1;rotation=-90;fillColor=none;labelPosition=center;verticalLabelPosition=top;align=center;verticalAlign=bottom;labelBackgroundColor=default;" parent="1" vertex="1">
          <mxGeometry x="85.75" y="286" width="74.5" height="39" as="geometry" />
        </mxCell>
        <mxCell id="9aIz3eH4mraqbj3gu_Gu-141" style="edgeStyle=orthogonalEdgeStyle;rounded=0;orthogonalLoop=1;jettySize=auto;html=1;exitX=1;exitY=0.5;exitDx=0;exitDy=0;entryX=0;entryY=0.5;entryDx=0;entryDy=0;fillColor=#dae8fc;strokeColor=#6c8ebf;" parent="1" source="9aIz3eH4mraqbj3gu_Gu-127" target="9aIz3eH4mraqbj3gu_Gu-131" edge="1">
          <mxGeometry relative="1" as="geometry" />
        </mxCell>
        <mxCell id="9aIz3eH4mraqbj3gu_Gu-127" value="Q1" style="rounded=0;whiteSpace=wrap;html=1;fillColor=#dae8fc;strokeColor=#6c8ebf;" parent="1" vertex="1">
          <mxGeometry x="107" y="306" width="30" height="30" as="geometry" />
        </mxCell>
        <mxCell id="9aIz3eH4mraqbj3gu_Gu-142" style="edgeStyle=orthogonalEdgeStyle;rounded=0;orthogonalLoop=1;jettySize=auto;html=1;exitX=1;exitY=0.5;exitDx=0;exitDy=0;entryX=0;entryY=0.5;entryDx=0;entryDy=0;fillColor=#dae8fc;strokeColor=#6c8ebf;" parent="1" source="9aIz3eH4mraqbj3gu_Gu-131" target="9aIz3eH4mraqbj3gu_Gu-133" edge="1">
          <mxGeometry relative="1" as="geometry" />
        </mxCell>
        <mxCell id="9aIz3eH4mraqbj3gu_Gu-131" value="" style="ellipse;whiteSpace=wrap;html=1;aspect=fixed;fillColor=#66B2FF;strokeColor=#6c8ebf;" parent="1" vertex="1">
          <mxGeometry x="175" y="316" width="10" height="10" as="geometry" />
        </mxCell>
        <mxCell id="9aIz3eH4mraqbj3gu_Gu-132" value="Quantum&lt;div&gt;Channel&lt;/div&gt;" style="rounded=0;whiteSpace=wrap;html=1;" parent="1" vertex="1">
          <mxGeometry x="210" y="301" width="60" height="40" as="geometry" />
        </mxCell>
        <mxCell id="9aIz3eH4mraqbj3gu_Gu-133" value="" style="ellipse;whiteSpace=wrap;html=1;aspect=fixed;fillColor=#66B2FF;strokeColor=#6c8ebf;" parent="1" vertex="1">
          <mxGeometry x="205" y="316" width="10" height="10" as="geometry" />
        </mxCell>
        <mxCell id="9aIz3eH4mraqbj3gu_Gu-143" style="edgeStyle=orthogonalEdgeStyle;rounded=0;orthogonalLoop=1;jettySize=auto;html=1;exitX=1;exitY=0.5;exitDx=0;exitDy=0;entryX=0;entryY=0.5;entryDx=0;entryDy=0;fillColor=#dae8fc;strokeColor=#6c8ebf;" parent="1" target="9aIz3eH4mraqbj3gu_Gu-136" edge="1">
          <mxGeometry relative="1" as="geometry">
            <mxPoint x="275" y="321" as="sourcePoint" />
          </mxGeometry>
        </mxCell>
        <mxCell id="9aIz3eH4mraqbj3gu_Gu-154" style="edgeStyle=orthogonalEdgeStyle;rounded=0;orthogonalLoop=1;jettySize=auto;html=1;exitX=1;exitY=0.5;exitDx=0;exitDy=0;entryX=0;entryY=0.5;entryDx=0;entryDy=0;fillColor=#dae8fc;strokeColor=#6c8ebf;" parent="1" target="9aIz3eH4mraqbj3gu_Gu-149" edge="1">
          <mxGeometry relative="1" as="geometry">
            <mxPoint x="295" y="321" as="sourcePoint" />
            <mxPoint x="333.5" y="249" as="targetPoint" />
            <Array as="points">
              <mxPoint x="304" y="321" />
              <mxPoint x="304" y="249" />
            </Array>
          </mxGeometry>
        </mxCell>
        <mxCell id="9aIz3eH4mraqbj3gu_Gu-136" value="" style="ellipse;whiteSpace=wrap;html=1;aspect=fixed;fillColor=#66B2FF;strokeColor=#6c8ebf;" parent="1" vertex="1">
          <mxGeometry x="291" y="316" width="10" height="10" as="geometry" />
        </mxCell>
        <mxCell id="9aIz3eH4mraqbj3gu_Gu-147" style="edgeStyle=orthogonalEdgeStyle;rounded=0;orthogonalLoop=1;jettySize=auto;html=1;exitX=1;exitY=0.5;exitDx=0;exitDy=0;fillColor=#dae8fc;strokeColor=#6c8ebf;strokeWidth=2;" parent="1" source="9aIz3eH4mraqbj3gu_Gu-144" edge="1">
          <mxGeometry relative="1" as="geometry">
            <mxPoint x="290" y="118" as="targetPoint" />
          </mxGeometry>
        </mxCell>
        <mxCell id="9aIz3eH4mraqbj3gu_Gu-144" value="" style="ellipse;whiteSpace=wrap;html=1;aspect=fixed;fillColor=#66B2FF;strokeColor=#6c8ebf;" parent="1" vertex="1">
          <mxGeometry x="174" y="113" width="10" height="10" as="geometry" />
        </mxCell>
        <mxCell id="9aIz3eH4mraqbj3gu_Gu-146" value="" style="ellipse;whiteSpace=wrap;html=1;aspect=fixed;fillColor=#66B2FF;strokeColor=#6c8ebf;" parent="1" vertex="1">
          <mxGeometry x="291" y="112" width="10" height="10" as="geometry" />
        </mxCell>
        <mxCell id="9aIz3eH4mraqbj3gu_Gu-148" value="M2" style="rounded=0;whiteSpace=wrap;html=1;fillColor=#dae8fc;strokeColor=#6c8ebf;" parent="1" vertex="1">
          <mxGeometry x="339.5" y="204" width="30" height="30" as="geometry" />
        </mxCell>
        <mxCell id="9aIz3eH4mraqbj3gu_Gu-149" value="M3" style="rounded=0;whiteSpace=wrap;html=1;fillColor=#dae8fc;strokeColor=#6c8ebf;" parent="1" vertex="1">
          <mxGeometry x="339.5" y="234" width="30" height="30" as="geometry" />
        </mxCell>
        <mxCell id="z7Oy1StXTTE89CD6nLSr-1" value="" style="edgeStyle=orthogonalEdgeStyle;rounded=0;orthogonalLoop=1;jettySize=auto;html=1;" edge="1" parent="1" source="9aIz3eH4mraqbj3gu_Gu-150">
          <mxGeometry relative="1" as="geometry">
            <mxPoint x="275" y="321" as="targetPoint" />
          </mxGeometry>
        </mxCell>
        <mxCell id="9aIz3eH4mraqbj3gu_Gu-150" value="&lt;div&gt;&lt;font style=&quot;font-size: 11px;&quot;&gt;EntangleNode&lt;/font&gt;&lt;br&gt;&lt;/div&gt;" style="rounded=0;whiteSpace=wrap;html=1;rotation=-90;fillColor=none;labelPosition=center;verticalLabelPosition=top;align=center;verticalAlign=bottom;labelBackgroundColor=default;" parent="1" vertex="1">
          <mxGeometry x="321" y="287" width="70.5" height="39" as="geometry" />
        </mxCell>
        <mxCell id="9aIz3eH4mraqbj3gu_Gu-153" style="edgeStyle=orthogonalEdgeStyle;rounded=0;orthogonalLoop=1;jettySize=auto;html=1;exitX=1;exitY=0.5;exitDx=0;exitDy=0;entryX=1;entryY=0.5;entryDx=0;entryDy=0;fillColor=#dae8fc;strokeColor=#6c8ebf;" parent="1" source="9aIz3eH4mraqbj3gu_Gu-151" target="9aIz3eH4mraqbj3gu_Gu-148" edge="1">
          <mxGeometry relative="1" as="geometry" />
        </mxCell>
        <mxCell id="9aIz3eH4mraqbj3gu_Gu-151" value="Q0" style="rounded=0;whiteSpace=wrap;html=1;fillColor=#dae8fc;strokeColor=#6c8ebf;" parent="1" vertex="1">
          <mxGeometry x="342" y="277" width="30" height="30" as="geometry" />
        </mxCell>
        <mxCell id="9aIz3eH4mraqbj3gu_Gu-152" value="Q1" style="rounded=0;whiteSpace=wrap;html=1;fillColor=#dae8fc;strokeColor=#6c8ebf;" parent="1" vertex="1">
          <mxGeometry x="342" y="307" width="30" height="30" as="geometry" />
        </mxCell>
        <mxCell id="9aIz3eH4mraqbj3gu_Gu-155" style="edgeStyle=orthogonalEdgeStyle;rounded=0;orthogonalLoop=1;jettySize=auto;html=1;exitX=1;exitY=0.5;exitDx=0;exitDy=0;entryX=0;entryY=0.5;entryDx=0;entryDy=0;fillColor=#dae8fc;strokeColor=#6c8ebf;strokeWidth=2;" parent="1" source="9aIz3eH4mraqbj3gu_Gu-156" target="9aIz3eH4mraqbj3gu_Gu-158" edge="1">
          <mxGeometry relative="1" as="geometry" />
        </mxCell>
        <mxCell id="9aIz3eH4mraqbj3gu_Gu-156" value="" style="ellipse;whiteSpace=wrap;html=1;aspect=fixed;fillColor=#66B2FF;strokeColor=#6c8ebf;" parent="1" vertex="1">
          <mxGeometry x="391" y="113" width="10" height="10" as="geometry" />
        </mxCell>
        <mxCell id="9aIz3eH4mraqbj3gu_Gu-157" value="" style="ellipse;whiteSpace=wrap;html=1;aspect=fixed;fillColor=#66B2FF;strokeColor=#6c8ebf;" parent="1" vertex="1">
          <mxGeometry x="608" y="113" width="10" height="10" as="geometry" />
        </mxCell>
        <mxCell id="9aIz3eH4mraqbj3gu_Gu-158" value="" style="ellipse;whiteSpace=wrap;html=1;aspect=fixed;fillColor=#66B2FF;strokeColor=#6c8ebf;" parent="1" vertex="1">
          <mxGeometry x="508" y="113" width="10" height="10" as="geometry" />
        </mxCell>
        <mxCell id="9aIz3eH4mraqbj3gu_Gu-162" style="edgeStyle=orthogonalEdgeStyle;rounded=0;orthogonalLoop=1;jettySize=auto;html=1;exitX=1;exitY=0.5;exitDx=0;exitDy=0;entryX=0;entryY=0.5;entryDx=0;entryDy=0;fillColor=#dae8fc;strokeColor=#6c8ebf;strokeWidth=2;" parent="1" edge="1">
          <mxGeometry relative="1" as="geometry">
            <mxPoint x="619" y="118" as="sourcePoint" />
            <mxPoint x="638" y="118" as="targetPoint" />
          </mxGeometry>
        </mxCell>
        <mxCell id="9aIz3eH4mraqbj3gu_Gu-165" style="edgeStyle=orthogonalEdgeStyle;rounded=0;orthogonalLoop=1;jettySize=auto;html=1;exitX=1;exitY=0.5;exitDx=0;exitDy=0;fillColor=#dae8fc;strokeColor=#6c8ebf;strokeWidth=2;" parent="1" target="9aIz3eH4mraqbj3gu_Gu-167" edge="1">
          <mxGeometry relative="1" as="geometry">
            <mxPoint x="832" y="118" as="sourcePoint" />
          </mxGeometry>
        </mxCell>
        <mxCell id="9aIz3eH4mraqbj3gu_Gu-167" value="" style="ellipse;whiteSpace=wrap;html=1;aspect=fixed;fillColor=#66B2FF;strokeColor=#6c8ebf;" parent="1" vertex="1">
          <mxGeometry x="939" y="113" width="10" height="10" as="geometry" />
        </mxCell>
        <mxCell id="9aIz3eH4mraqbj3gu_Gu-187" style="edgeStyle=orthogonalEdgeStyle;rounded=0;orthogonalLoop=1;jettySize=auto;html=1;exitX=1;exitY=0.5;exitDx=0;exitDy=0;entryX=0;entryY=0.5;entryDx=0;entryDy=0;fillColor=#dae8fc;strokeColor=#6c8ebf;" parent="1" source="9aIz3eH4mraqbj3gu_Gu-170" target="9aIz3eH4mraqbj3gu_Gu-172" edge="1">
          <mxGeometry relative="1" as="geometry">
            <Array as="points">
              <mxPoint x="520" y="321" />
              <mxPoint x="520" y="250" />
            </Array>
          </mxGeometry>
        </mxCell>
        <mxCell id="9aIz3eH4mraqbj3gu_Gu-170" value="" style="ellipse;whiteSpace=wrap;html=1;aspect=fixed;fillColor=#66B2FF;strokeColor=#6c8ebf;" parent="1" vertex="1">
          <mxGeometry x="506" y="316" width="10" height="10" as="geometry" />
        </mxCell>
        <mxCell id="9aIz3eH4mraqbj3gu_Gu-171" value="M2" style="rounded=0;whiteSpace=wrap;html=1;fillColor=#dae8fc;strokeColor=#6c8ebf;" parent="1" vertex="1">
          <mxGeometry x="554.5" y="205" width="30" height="30" as="geometry" />
        </mxCell>
        <mxCell id="9aIz3eH4mraqbj3gu_Gu-172" value="M3" style="rounded=0;whiteSpace=wrap;html=1;fillColor=#dae8fc;strokeColor=#6c8ebf;" parent="1" vertex="1">
          <mxGeometry x="554.5" y="235" width="30" height="30" as="geometry" />
        </mxCell>
        <mxCell id="9aIz3eH4mraqbj3gu_Gu-173" value="&lt;div&gt;&lt;font style=&quot;font-size: 11px;&quot;&gt;EntangleNode&lt;/font&gt;&lt;br&gt;&lt;/div&gt;" style="rounded=0;whiteSpace=wrap;html=1;rotation=-90;fillColor=none;labelPosition=center;verticalLabelPosition=top;align=center;verticalAlign=bottom;labelBackgroundColor=default;" parent="1" vertex="1">
          <mxGeometry x="536.25" y="291.25" width="70.5" height="39" as="geometry" />
        </mxCell>
        <mxCell id="9aIz3eH4mraqbj3gu_Gu-174" style="edgeStyle=orthogonalEdgeStyle;rounded=0;orthogonalLoop=1;jettySize=auto;html=1;exitX=1;exitY=0.5;exitDx=0;exitDy=0;entryX=1;entryY=0.5;entryDx=0;entryDy=0;fillColor=#dae8fc;strokeColor=#6c8ebf;" parent="1" source="9aIz3eH4mraqbj3gu_Gu-175" target="9aIz3eH4mraqbj3gu_Gu-171" edge="1">
          <mxGeometry relative="1" as="geometry" />
        </mxCell>
        <mxCell id="9aIz3eH4mraqbj3gu_Gu-175" value="Q0" style="rounded=0;whiteSpace=wrap;html=1;fillColor=#dae8fc;strokeColor=#6c8ebf;" parent="1" vertex="1">
          <mxGeometry x="557" y="281" width="30" height="30" as="geometry" />
        </mxCell>
        <mxCell id="9aIz3eH4mraqbj3gu_Gu-176" value="Q1" style="rounded=0;whiteSpace=wrap;html=1;fillColor=#dae8fc;strokeColor=#6c8ebf;" parent="1" vertex="1">
          <mxGeometry x="557" y="311" width="30" height="30" as="geometry" />
        </mxCell>
        <mxCell id="9aIz3eH4mraqbj3gu_Gu-177" value="Quantum&lt;div&gt;Channel&lt;/div&gt;" style="rounded=0;whiteSpace=wrap;html=1;" parent="1" vertex="1">
          <mxGeometry x="427" y="301" width="60" height="40" as="geometry" />
        </mxCell>
        <mxCell id="9aIz3eH4mraqbj3gu_Gu-178" value="" style="ellipse;whiteSpace=wrap;html=1;aspect=fixed;fillColor=#66B2FF;strokeColor=#6c8ebf;" parent="1" vertex="1">
          <mxGeometry x="422" y="316" width="10" height="10" as="geometry" />
        </mxCell>
        <mxCell id="9aIz3eH4mraqbj3gu_Gu-186" style="edgeStyle=orthogonalEdgeStyle;rounded=0;orthogonalLoop=1;jettySize=auto;html=1;exitX=1;exitY=0.5;exitDx=0;exitDy=0;entryX=0;entryY=0.5;entryDx=0;entryDy=0;fillColor=#dae8fc;strokeColor=#6c8ebf;" parent="1" source="9aIz3eH4mraqbj3gu_Gu-179" target="9aIz3eH4mraqbj3gu_Gu-170" edge="1">
          <mxGeometry relative="1" as="geometry" />
        </mxCell>
        <mxCell id="9aIz3eH4mraqbj3gu_Gu-179" value="" style="ellipse;whiteSpace=wrap;html=1;aspect=fixed;fillColor=#66B2FF;strokeColor=#6c8ebf;" parent="1" vertex="1">
          <mxGeometry x="482" y="316" width="10" height="10" as="geometry" />
        </mxCell>
        <mxCell id="9aIz3eH4mraqbj3gu_Gu-190" style="edgeStyle=orthogonalEdgeStyle;rounded=0;orthogonalLoop=1;jettySize=auto;html=1;exitX=1;exitY=0.5;exitDx=0;exitDy=0;fillColor=#dae8fc;strokeColor=#6c8ebf;" parent="1" source="9aIz3eH4mraqbj3gu_Gu-180" edge="1">
          <mxGeometry relative="1" as="geometry">
            <mxPoint x="420" y="321" as="targetPoint" />
          </mxGeometry>
        </mxCell>
        <mxCell id="9aIz3eH4mraqbj3gu_Gu-180" value="" style="ellipse;whiteSpace=wrap;html=1;aspect=fixed;fillColor=#66B2FF;strokeColor=#6c8ebf;" parent="1" vertex="1">
          <mxGeometry x="391" y="316" width="10" height="10" as="geometry" />
        </mxCell>
        <mxCell id="9aIz3eH4mraqbj3gu_Gu-191" value="" style="endArrow=classic;html=1;rounded=0;exitX=1;exitY=0.5;exitDx=0;exitDy=0;entryX=0;entryY=0.5;entryDx=0;entryDy=0;fillColor=#dae8fc;strokeColor=#6c8ebf;" parent="1" source="9aIz3eH4mraqbj3gu_Gu-152" target="9aIz3eH4mraqbj3gu_Gu-180" edge="1">
          <mxGeometry width="50" height="50" relative="1" as="geometry">
            <mxPoint x="500" y="300" as="sourcePoint" />
            <mxPoint x="550" y="250" as="targetPoint" />
          </mxGeometry>
        </mxCell>
        <mxCell id="9aIz3eH4mraqbj3gu_Gu-192" value="" style="rounded=0;whiteSpace=wrap;html=1;" parent="1" vertex="1">
          <mxGeometry x="731" y="80" width="100" height="360" as="geometry" />
        </mxCell>
        <mxCell id="9aIz3eH4mraqbj3gu_Gu-193" value="&lt;b&gt;swN&lt;/b&gt;" style="text;html=1;align=center;verticalAlign=middle;whiteSpace=wrap;rounded=0;" parent="1" vertex="1">
          <mxGeometry x="761" y="50" width="60" height="30" as="geometry" />
        </mxCell>
        <mxCell id="9aIz3eH4mraqbj3gu_Gu-194" value="M0" style="rounded=0;whiteSpace=wrap;html=1;fillColor=#dae8fc;strokeColor=#6c8ebf;" parent="1" vertex="1">
          <mxGeometry x="756" y="140" width="30" height="30" as="geometry" />
        </mxCell>
        <mxCell id="9aIz3eH4mraqbj3gu_Gu-195" value="M1" style="rounded=0;whiteSpace=wrap;html=1;fillColor=#dae8fc;strokeColor=#6c8ebf;" parent="1" vertex="1">
          <mxGeometry x="756" y="170" width="30" height="30" as="geometry" />
        </mxCell>
        <mxCell id="9aIz3eH4mraqbj3gu_Gu-196" value="&lt;div&gt;&lt;font style=&quot;font-size: 11px;&quot;&gt;EntangleNode&lt;/font&gt;&lt;br&gt;&lt;/div&gt;" style="rounded=0;whiteSpace=wrap;html=1;rotation=-90;fillColor=none;labelPosition=center;verticalLabelPosition=top;align=center;verticalAlign=bottom;labelBackgroundColor=default;" parent="1" vertex="1">
          <mxGeometry x="754.25" y="366.25" width="70.5" height="39" as="geometry" />
        </mxCell>
        <mxCell id="9aIz3eH4mraqbj3gu_Gu-197" style="edgeStyle=orthogonalEdgeStyle;rounded=0;orthogonalLoop=1;jettySize=auto;html=1;exitX=1;exitY=0.5;exitDx=0;exitDy=0;entryX=1;entryY=0.5;entryDx=0;entryDy=0;fillColor=#dae8fc;strokeColor=#6c8ebf;" parent="1" source="9aIz3eH4mraqbj3gu_Gu-198" target="9aIz3eH4mraqbj3gu_Gu-194" edge="1">
          <mxGeometry relative="1" as="geometry">
            <Array as="points">
              <mxPoint x="815" y="371" />
              <mxPoint x="815" y="155" />
            </Array>
          </mxGeometry>
        </mxCell>
        <mxCell id="9aIz3eH4mraqbj3gu_Gu-198" value="Q0" style="rounded=0;whiteSpace=wrap;html=1;fillColor=#dae8fc;strokeColor=#6c8ebf;" parent="1" vertex="1">
          <mxGeometry x="775" y="356" width="30" height="30" as="geometry" />
        </mxCell>
        <mxCell id="9aIz3eH4mraqbj3gu_Gu-199" style="edgeStyle=orthogonalEdgeStyle;rounded=0;orthogonalLoop=1;jettySize=auto;html=1;exitX=1;exitY=0.5;exitDx=0;exitDy=0;entryX=0;entryY=0.5;entryDx=0;entryDy=0;fillColor=#dae8fc;strokeColor=#6c8ebf;" parent="1" source="9aIz3eH4mraqbj3gu_Gu-200" target="9aIz3eH4mraqbj3gu_Gu-201" edge="1">
          <mxGeometry relative="1" as="geometry" />
        </mxCell>
        <mxCell id="9aIz3eH4mraqbj3gu_Gu-200" value="Q1" style="rounded=0;whiteSpace=wrap;html=1;fillColor=#dae8fc;strokeColor=#6c8ebf;" parent="1" vertex="1">
          <mxGeometry x="775" y="386" width="30" height="30" as="geometry" />
        </mxCell>
        <mxCell id="9aIz3eH4mraqbj3gu_Gu-222" style="edgeStyle=orthogonalEdgeStyle;rounded=0;orthogonalLoop=1;jettySize=auto;html=1;exitX=1;exitY=0.5;exitDx=0;exitDy=0;entryX=0;entryY=0.5;entryDx=0;entryDy=0;fillColor=#dae8fc;strokeColor=#6c8ebf;" parent="1" source="9aIz3eH4mraqbj3gu_Gu-201" target="9aIz3eH4mraqbj3gu_Gu-95" edge="1">
          <mxGeometry relative="1" as="geometry" />
        </mxCell>
        <mxCell id="9aIz3eH4mraqbj3gu_Gu-201" value="" style="ellipse;whiteSpace=wrap;html=1;aspect=fixed;fillColor=#66B2FF;strokeColor=#6c8ebf;" parent="1" vertex="1">
          <mxGeometry x="826" y="396" width="10" height="10" as="geometry" />
        </mxCell>
        <mxCell id="9aIz3eH4mraqbj3gu_Gu-202" value="" style="ellipse;whiteSpace=wrap;html=1;aspect=fixed;fillColor=#66B2FF;strokeColor=#6c8ebf;" parent="1" vertex="1">
          <mxGeometry x="826" y="92" width="10" height="10" as="geometry" />
        </mxCell>
        <mxCell id="9aIz3eH4mraqbj3gu_Gu-203" style="edgeStyle=orthogonalEdgeStyle;rounded=0;orthogonalLoop=1;jettySize=auto;html=1;exitX=1;exitY=0.5;exitDx=0;exitDy=0;entryX=0;entryY=0.5;entryDx=0;entryDy=0;fillColor=#dae8fc;strokeColor=#6c8ebf;" parent="1" source="9aIz3eH4mraqbj3gu_Gu-204" target="9aIz3eH4mraqbj3gu_Gu-195" edge="1">
          <mxGeometry relative="1" as="geometry">
            <Array as="points">
              <mxPoint x="745" y="401" />
              <mxPoint x="745" y="185" />
            </Array>
          </mxGeometry>
        </mxCell>
        <mxCell id="9aIz3eH4mraqbj3gu_Gu-204" value="" style="ellipse;whiteSpace=wrap;html=1;aspect=fixed;fillColor=#66B2FF;strokeColor=#6c8ebf;" parent="1" vertex="1">
          <mxGeometry x="726" y="396" width="10" height="10" as="geometry" />
        </mxCell>
        <mxCell id="9aIz3eH4mraqbj3gu_Gu-205" value="" style="ellipse;whiteSpace=wrap;html=1;aspect=fixed;fillColor=#66B2FF;strokeColor=#6c8ebf;" parent="1" vertex="1">
          <mxGeometry x="726" y="92" width="10" height="10" as="geometry" />
        </mxCell>
        <mxCell id="9aIz3eH4mraqbj3gu_Gu-206" value="" style="ellipse;whiteSpace=wrap;html=1;aspect=fixed;fillColor=#66B2FF;strokeColor=#6c8ebf;" parent="1" vertex="1">
          <mxGeometry x="826" y="113" width="10" height="10" as="geometry" />
        </mxCell>
        <mxCell id="9aIz3eH4mraqbj3gu_Gu-207" value="" style="ellipse;whiteSpace=wrap;html=1;aspect=fixed;fillColor=#66B2FF;strokeColor=#6c8ebf;" parent="1" vertex="1">
          <mxGeometry x="726" y="113" width="10" height="10" as="geometry" />
        </mxCell>
        <mxCell id="9aIz3eH4mraqbj3gu_Gu-208" style="edgeStyle=orthogonalEdgeStyle;rounded=0;orthogonalLoop=1;jettySize=auto;html=1;exitX=1;exitY=0.5;exitDx=0;exitDy=0;entryX=0;entryY=0.5;entryDx=0;entryDy=0;fillColor=#dae8fc;strokeColor=#6c8ebf;" parent="1" source="9aIz3eH4mraqbj3gu_Gu-209" target="9aIz3eH4mraqbj3gu_Gu-211" edge="1">
          <mxGeometry relative="1" as="geometry">
            <Array as="points">
              <mxPoint x="738" y="321" />
              <mxPoint x="738" y="250" />
            </Array>
          </mxGeometry>
        </mxCell>
        <mxCell id="9aIz3eH4mraqbj3gu_Gu-209" value="" style="ellipse;whiteSpace=wrap;html=1;aspect=fixed;fillColor=#66B2FF;strokeColor=#6c8ebf;" parent="1" vertex="1">
          <mxGeometry x="724" y="318" width="10" height="10" as="geometry" />
        </mxCell>
        <mxCell id="9aIz3eH4mraqbj3gu_Gu-210" value="M2" style="rounded=0;whiteSpace=wrap;html=1;fillColor=#dae8fc;strokeColor=#6c8ebf;" parent="1" vertex="1">
          <mxGeometry x="772.5" y="205" width="30" height="30" as="geometry" />
        </mxCell>
        <mxCell id="9aIz3eH4mraqbj3gu_Gu-211" value="M3" style="rounded=0;whiteSpace=wrap;html=1;fillColor=#dae8fc;strokeColor=#6c8ebf;" parent="1" vertex="1">
          <mxGeometry x="772.5" y="235" width="30" height="30" as="geometry" />
        </mxCell>
        <mxCell id="9aIz3eH4mraqbj3gu_Gu-212" value="&lt;div&gt;&lt;font style=&quot;font-size: 11px;&quot;&gt;EntangleNode&lt;/font&gt;&lt;br&gt;&lt;/div&gt;" style="rounded=0;whiteSpace=wrap;html=1;rotation=-90;fillColor=none;labelPosition=center;verticalLabelPosition=top;align=center;verticalAlign=bottom;labelBackgroundColor=default;" parent="1" vertex="1">
          <mxGeometry x="754.25" y="291.25" width="70.5" height="39" as="geometry" />
        </mxCell>
        <mxCell id="9aIz3eH4mraqbj3gu_Gu-213" style="edgeStyle=orthogonalEdgeStyle;rounded=0;orthogonalLoop=1;jettySize=auto;html=1;exitX=1;exitY=0.5;exitDx=0;exitDy=0;entryX=1;entryY=0.5;entryDx=0;entryDy=0;fillColor=#dae8fc;strokeColor=#6c8ebf;" parent="1" source="9aIz3eH4mraqbj3gu_Gu-214" target="9aIz3eH4mraqbj3gu_Gu-210" edge="1">
          <mxGeometry relative="1" as="geometry" />
        </mxCell>
        <mxCell id="9aIz3eH4mraqbj3gu_Gu-214" value="Q0" style="rounded=0;whiteSpace=wrap;html=1;fillColor=#dae8fc;strokeColor=#6c8ebf;" parent="1" vertex="1">
          <mxGeometry x="775" y="281" width="30" height="30" as="geometry" />
        </mxCell>
        <mxCell id="9aIz3eH4mraqbj3gu_Gu-215" value="Q1" style="rounded=0;whiteSpace=wrap;html=1;fillColor=#dae8fc;strokeColor=#6c8ebf;" parent="1" vertex="1">
          <mxGeometry x="775" y="311" width="30" height="30" as="geometry" />
        </mxCell>
        <mxCell id="9aIz3eH4mraqbj3gu_Gu-216" style="edgeStyle=orthogonalEdgeStyle;rounded=0;orthogonalLoop=1;jettySize=auto;html=1;exitX=1;exitY=0.5;exitDx=0;exitDy=0;entryX=0;entryY=0.5;entryDx=0;entryDy=0;fillColor=#dae8fc;strokeColor=#6c8ebf;strokeWidth=2;" parent="1" edge="1">
          <mxGeometry relative="1" as="geometry">
            <mxPoint x="708" y="97" as="sourcePoint" />
            <mxPoint x="727" y="97" as="targetPoint" />
          </mxGeometry>
        </mxCell>
        <mxCell id="9aIz3eH4mraqbj3gu_Gu-217" style="edgeStyle=orthogonalEdgeStyle;rounded=0;orthogonalLoop=1;jettySize=auto;html=1;exitX=1;exitY=0.5;exitDx=0;exitDy=0;entryX=0;entryY=0.5;entryDx=0;entryDy=0;fillColor=#dae8fc;strokeColor=#6c8ebf;strokeWidth=2;" parent="1" edge="1">
          <mxGeometry relative="1" as="geometry">
            <mxPoint x="708" y="118" as="sourcePoint" />
            <mxPoint x="727" y="118" as="targetPoint" />
          </mxGeometry>
        </mxCell>
        <mxCell id="9aIz3eH4mraqbj3gu_Gu-218" value="" style="ellipse;whiteSpace=wrap;html=1;aspect=fixed;fillColor=#66B2FF;strokeColor=#6c8ebf;" parent="1" vertex="1">
          <mxGeometry x="608" y="318" width="10" height="10" as="geometry" />
        </mxCell>
        <mxCell id="9aIz3eH4mraqbj3gu_Gu-219" style="edgeStyle=orthogonalEdgeStyle;rounded=0;orthogonalLoop=1;jettySize=auto;html=1;exitX=1;exitY=0.5;exitDx=0;exitDy=0;entryX=0;entryY=0.5;entryDx=0;entryDy=0;fillColor=#dae8fc;strokeColor=#6c8ebf;" parent="1" edge="1">
          <mxGeometry relative="1" as="geometry">
            <mxPoint x="619" y="323" as="sourcePoint" />
            <mxPoint x="638" y="323" as="targetPoint" />
          </mxGeometry>
        </mxCell>
        <mxCell id="9aIz3eH4mraqbj3gu_Gu-220" style="edgeStyle=orthogonalEdgeStyle;rounded=0;orthogonalLoop=1;jettySize=auto;html=1;exitX=1;exitY=0.5;exitDx=0;exitDy=0;entryX=0;entryY=0.5;entryDx=0;entryDy=0;fillColor=#dae8fc;strokeColor=#6c8ebf;" parent="1" edge="1">
          <mxGeometry relative="1" as="geometry">
            <mxPoint x="706" y="323" as="sourcePoint" />
            <mxPoint x="725" y="323" as="targetPoint" />
          </mxGeometry>
        </mxCell>
        <mxCell id="9aIz3eH4mraqbj3gu_Gu-221" style="edgeStyle=orthogonalEdgeStyle;rounded=0;orthogonalLoop=1;jettySize=auto;html=1;exitX=1;exitY=0.5;exitDx=0;exitDy=0;entryX=0;entryY=0.5;entryDx=0;entryDy=0;fillColor=#dae8fc;strokeColor=#6c8ebf;" parent="1" edge="1">
          <mxGeometry relative="1" as="geometry">
            <mxPoint x="708" y="401" as="sourcePoint" />
            <mxPoint x="727" y="401" as="targetPoint" />
          </mxGeometry>
        </mxCell>
        <mxCell id="9aIz3eH4mraqbj3gu_Gu-223" value="Quantum&lt;div&gt;Channel&lt;/div&gt;" style="rounded=0;whiteSpace=wrap;html=1;" parent="1" vertex="1">
          <mxGeometry x="855" y="307" width="60" height="40" as="geometry" />
        </mxCell>
        <mxCell id="9aIz3eH4mraqbj3gu_Gu-224" value="" style="ellipse;whiteSpace=wrap;html=1;aspect=fixed;fillColor=#66B2FF;strokeColor=#6c8ebf;" parent="1" vertex="1">
          <mxGeometry x="850" y="322" width="10" height="10" as="geometry" />
        </mxCell>
        <mxCell id="9aIz3eH4mraqbj3gu_Gu-225" style="edgeStyle=orthogonalEdgeStyle;rounded=0;orthogonalLoop=1;jettySize=auto;html=1;exitX=1;exitY=0.5;exitDx=0;exitDy=0;entryX=0;entryY=0.5;entryDx=0;entryDy=0;fillColor=#dae8fc;strokeColor=#6c8ebf;" parent="1" source="9aIz3eH4mraqbj3gu_Gu-226" target="9aIz3eH4mraqbj3gu_Gu-227" edge="1">
          <mxGeometry relative="1" as="geometry" />
        </mxCell>
        <mxCell id="9aIz3eH4mraqbj3gu_Gu-226" value="" style="ellipse;whiteSpace=wrap;html=1;aspect=fixed;fillColor=#66B2FF;strokeColor=#6c8ebf;" parent="1" vertex="1">
          <mxGeometry x="910" y="322" width="10" height="10" as="geometry" />
        </mxCell>
        <mxCell id="9aIz3eH4mraqbj3gu_Gu-233" style="edgeStyle=orthogonalEdgeStyle;rounded=0;orthogonalLoop=1;jettySize=auto;html=1;exitX=1;exitY=0.5;exitDx=0;exitDy=0;entryX=0;entryY=0.5;entryDx=0;entryDy=0;fillColor=#dae8fc;strokeColor=#6c8ebf;" parent="1" source="9aIz3eH4mraqbj3gu_Gu-227" target="9aIz3eH4mraqbj3gu_Gu-86" edge="1">
          <mxGeometry relative="1" as="geometry">
            <Array as="points">
              <mxPoint x="990" y="327" />
              <mxPoint x="990" y="249" />
            </Array>
          </mxGeometry>
        </mxCell>
        <mxCell id="9aIz3eH4mraqbj3gu_Gu-227" value="" style="ellipse;whiteSpace=wrap;html=1;aspect=fixed;fillColor=#66B2FF;strokeColor=#6c8ebf;" parent="1" vertex="1">
          <mxGeometry x="939" y="322" width="10" height="10" as="geometry" />
        </mxCell>
        <mxCell id="9aIz3eH4mraqbj3gu_Gu-228" style="edgeStyle=orthogonalEdgeStyle;rounded=0;orthogonalLoop=1;jettySize=auto;html=1;exitX=1;exitY=0.5;exitDx=0;exitDy=0;entryX=0;entryY=0.5;entryDx=0;entryDy=0;fillColor=#dae8fc;strokeColor=#6c8ebf;" parent="1" source="9aIz3eH4mraqbj3gu_Gu-229" target="9aIz3eH4mraqbj3gu_Gu-224" edge="1">
          <mxGeometry relative="1" as="geometry" />
        </mxCell>
        <mxCell id="9aIz3eH4mraqbj3gu_Gu-229" value="" style="ellipse;whiteSpace=wrap;html=1;aspect=fixed;fillColor=#66B2FF;strokeColor=#6c8ebf;" parent="1" vertex="1">
          <mxGeometry x="826" y="322" width="10" height="10" as="geometry" />
        </mxCell>
        <mxCell id="9aIz3eH4mraqbj3gu_Gu-230" value="" style="endArrow=classic;html=1;rounded=0;exitX=1;exitY=0.5;exitDx=0;exitDy=0;entryX=0;entryY=0.5;entryDx=0;entryDy=0;fillColor=#dae8fc;strokeColor=#6c8ebf;" parent="1" edge="1">
          <mxGeometry width="50" height="50" relative="1" as="geometry">
            <mxPoint x="590" y="324" as="sourcePoint" />
            <mxPoint x="609" y="323" as="targetPoint" />
          </mxGeometry>
        </mxCell>
        <mxCell id="9aIz3eH4mraqbj3gu_Gu-232" value="" style="endArrow=classic;html=1;rounded=0;entryX=0;entryY=0.5;entryDx=0;entryDy=0;exitX=1;exitY=0.5;exitDx=0;exitDy=0;fillColor=#dae8fc;strokeColor=#6c8ebf;" parent="1" source="9aIz3eH4mraqbj3gu_Gu-215" target="9aIz3eH4mraqbj3gu_Gu-229" edge="1">
          <mxGeometry width="50" height="50" relative="1" as="geometry">
            <mxPoint x="650" y="300" as="sourcePoint" />
            <mxPoint x="700" y="250" as="targetPoint" />
          </mxGeometry>
        </mxCell>
        <mxCell id="9aIz3eH4mraqbj3gu_Gu-234" value="" style="ellipse;whiteSpace=wrap;html=1;aspect=fixed;fillColor=#66B2FF;strokeColor=#6c8ebf;" parent="1" vertex="1">
          <mxGeometry x="129" y="75" width="10" height="10" as="geometry" />
        </mxCell>
        <mxCell id="9aIz3eH4mraqbj3gu_Gu-237" style="edgeStyle=orthogonalEdgeStyle;rounded=0;orthogonalLoop=1;jettySize=auto;html=1;exitX=0.5;exitY=0;exitDx=0;exitDy=0;entryX=0.5;entryY=0;entryDx=0;entryDy=0;strokeWidth=2;startArrow=classic;startFill=1;fillColor=#dae8fc;strokeColor=#6c8ebf;" parent="1" source="9aIz3eH4mraqbj3gu_Gu-236" target="9aIz3eH4mraqbj3gu_Gu-234" edge="1">
          <mxGeometry relative="1" as="geometry">
            <Array as="points">
              <mxPoint x="995" y="50" />
              <mxPoint x="134" y="50" />
            </Array>
          </mxGeometry>
        </mxCell>
        <mxCell id="9aIz3eH4mraqbj3gu_Gu-236" value="" style="ellipse;whiteSpace=wrap;html=1;aspect=fixed;fillColor=#66B2FF;strokeColor=#6c8ebf;" parent="1" vertex="1">
          <mxGeometry x="990" y="75" width="10" height="10" as="geometry" />
        </mxCell>
        <mxCell id="9aIz3eH4mraqbj3gu_Gu-238" value="classical DISTIL" style="text;html=1;align=center;verticalAlign=middle;whiteSpace=wrap;rounded=0;" parent="1" vertex="1">
          <mxGeometry x="529" y="20" width="110.5" height="30" as="geometry" />
        </mxCell>
        <mxCell id="9aIz3eH4mraqbj3gu_Gu-239" value="ccon_distil_node1_path1" style="text;html=1;align=center;verticalAlign=middle;whiteSpace=wrap;rounded=0;fontSize=11;rotation=0;" parent="1" vertex="1">
          <mxGeometry x="124" y="10" width="146" height="30" as="geometry" />
        </mxCell>
        <mxCell id="9aIz3eH4mraqbj3gu_Gu-240" value="" style="endArrow=classic;html=1;rounded=0;exitX=0.5;exitY=1;exitDx=0;exitDy=0;entryX=0.65;entryY=-0.017;entryDx=0;entryDy=0;entryPerimeter=0;" parent="1" source="9aIz3eH4mraqbj3gu_Gu-239" target="9aIz3eH4mraqbj3gu_Gu-1" edge="1">
          <mxGeometry width="50" height="50" relative="1" as="geometry">
            <mxPoint x="460" y="60" as="sourcePoint" />
            <mxPoint x="510" y="10" as="targetPoint" />
          </mxGeometry>
        </mxCell>
        <mxCell id="9aIz3eH4mraqbj3gu_Gu-241" value="ccon_distil_node2_path1" style="text;html=1;align=center;verticalAlign=middle;whiteSpace=wrap;rounded=0;fontSize=11;rotation=0;" parent="1" vertex="1">
          <mxGeometry x="922" y="10" width="144" height="30" as="geometry" />
        </mxCell>
        <mxCell id="9aIz3eH4mraqbj3gu_Gu-242" value="" style="endArrow=classic;html=1;rounded=0;exitX=0.75;exitY=1;exitDx=0;exitDy=0;" parent="1" source="9aIz3eH4mraqbj3gu_Gu-241" edge="1">
          <mxGeometry width="50" height="50" relative="1" as="geometry">
            <mxPoint x="910" y="60" as="sourcePoint" />
            <mxPoint x="1000" y="70" as="targetPoint" />
          </mxGeometry>
        </mxCell>
      </root>
    </mxGraphModel>
  </diagram>
</mxfile>
